<svg id="Capa_1" enable-background="new 0 0 512 512" height="512" viewBox="0 0 512 512" width="512" xmlns="http://www.w3.org/2000/svg"><g><path d=""/><g><path d="m480.133 106.194h-169.959c-17.6 0-31.867 14.267-31.867 31.867 0 17.6 14.267 31.867 31.867 31.867h93.027l-130.644 130.64-83.688-83.696c-12.446-12.447-32.626-12.448-45.073-.001l-134.463 134.472c-5.976 5.976-9.333 14.081-9.333 22.532 0 28.39 34.325 42.608 54.4 22.534l111.934-111.93 83.691 83.683c12.445 12.444 32.621 12.443 45.065-.001l153.175-153.169v93.027c0 17.6 14.267 31.867 31.867 31.867 17.6 0 31.867-14.267 31.867-31.867v-169.958c.001-17.6-14.266-31.867-31.866-31.867z"/></g></g></svg>